<svg xmlns="http://www.w3.org/2000/svg" viewBox="0 0 48 48">
    <!-- Dog head outline -->
    <path 
        fill="#f97316" 
        d="M24 8c-6 0-11 4-13 9-1 2-1 4 0 6l1 2c0 3 2 5 4 7 2 3 5 5 8 5s6-2 8-5c2-2 4-4 4-7l1-2c1-2 1-4 0-6-2-5-7-9-13-9z"
    />
    <!-- Left ear -->
    <path 
        fill="#f97316" 
        d="M14 12c-2-1-4 0-5 2-1 2 0 4 2 5l3 2c1 0 2-1 2-2l-2-7z"
    />
    <!-- Right ear -->
    <path 
        fill="#f97316" 
        d="M34 12c2-1 4 0 5 2 1 2 0 4-2 5l-3 2c-1 0-2-1-2-2l2-7z"
    />
    <!-- Eyes -->
    <circle fill="white" cx="20" cy="22" r="2"/>
    <circle fill="white" cx="28" cy="22" r="2"/>
    <!-- Nose -->
    <path 
        fill="#dc2626" 
        d="M24 26c-1 0-2 1-2 2s1 2 2 2 2-1 2-2-1-2-2-2z"
    />
    <!-- Mouth -->
    <path 
        fill="#dc2626" 
        d="M24 30c-2 0-4 1-4 3 0 1 1 2 2 2h4c1 0 2-1 2-2 0-2-2-3-4-3z"
    />
    <!-- Piano keys at bottom -->
    <rect fill="#1f2937" x="12" y="38" width="3" height="6"/>
    <rect fill="#1f2937" x="18" y="38" width="3" height="6"/>
    <rect fill="#1f2937" x="24" y="38" width="3" height="6"/>
    <rect fill="#1f2937" x="30" y="38" width="3" height="6"/>
    <rect fill="#1f2937" x="36" y="38" width="3" height="6"/>
    <!-- Black keys -->
    <rect fill="#000" x="14.5" y="38" width="2" height="4"/>
    <rect fill="#000" x="20.5" y="38" width="2" height="4"/>
    <rect fill="#000" x="32.5" y="38" width="2" height="4"/>
</svg>
